<?xml version="1.0" encoding="utf-8"?>
<!-- Generator: Adobe Illustrator 16.0.0, SVG Export Plug-In . SVG Version: 6.00 Build 0)  -->
<!DOCTYPE svg PUBLIC "-//W3C//DTD SVG 1.1//EN" "http://www.w3.org/Graphics/SVG/1.1/DTD/svg11.dtd">
<svg version="1.1" id="Layer_1" xmlns="http://www.w3.org/2000/svg" xmlns:xlink="http://www.w3.org/1999/xlink" x="0px" y="0px"
	 width="128px" height="128px" viewBox="0 0 128 128" enable-background="new 0 0 128 128" xml:space="preserve">
<g>
	<g>
		<path fill="#8C6B4A" d="M103.841,34.247c0.1,0.545,0.19,1.093,0.269,1.648c0.398-0.084,0.782-0.219,1.113-0.452l14.993-10.643
			c0.652-0.457,1.086-1.149,1.219-1.937c0.134-0.785-0.043-1.58-0.495-2.229c-0.904-1.307-2.843-1.649-4.138-0.729l-14.02,9.944
			c0.173,0.571,0.335,1.143,0.482,1.724C103.491,32.453,103.677,33.347,103.841,34.247z M123.459,48.681
			c-0.454-0.653-1.138-1.09-1.919-1.228l-17.13-3.01c-0.035,0.564-0.08,1.127-0.141,1.689c-0.091,0.864-0.207,1.729-0.348,2.591
			c-0.091,0.558-0.188,1.11-0.297,1.667l16.894,2.964c0.174,0.029,0.346,0.044,0.517,0.044c1.443,0,2.674-1.043,2.919-2.479
			C124.093,50.129,123.917,49.334,123.459,48.681z M103.108,58.456c-0.351-0.499-0.855-0.854-1.412-1.057
			c-0.188,0.528-0.387,1.053-0.588,1.571c-0.337,0.859-0.689,1.715-1.072,2.561c-0.264,0.586-0.543,1.167-0.829,1.741l9.59,13.752
			c0.454,0.653,1.138,1.09,1.921,1.229c0.17,0.034,0.341,0.048,0.512,0.048c0.62,0,1.21-0.194,1.703-0.548
			c0.649-0.458,1.086-1.148,1.222-1.939c0.133-0.789-0.043-1.586-0.501-2.235L103.108,58.456z M7.786,24.801l14.989,10.636
			c0.184,0.129,0.386,0.211,0.586,0.293c0.083-0.581,0.186-1.158,0.293-1.732c0.178-0.929,0.378-1.852,0.617-2.755
			c0.153-0.581,0.314-1.148,0.49-1.718l-13.558-9.619c-1.3-0.92-3.236-0.577-4.139,0.723c-0.455,0.656-0.633,1.451-0.495,2.238
			C6.702,23.651,7.136,24.344,7.786,24.801z M23.561,48.817c-0.143-0.867-0.267-1.728-0.359-2.591
			c-0.064-0.562-0.11-1.127-0.15-1.688L6.462,47.453c-0.784,0.138-1.465,0.574-1.922,1.232c-0.455,0.653-0.631,1.446-0.495,2.231
			c0.25,1.438,1.479,2.481,2.924,2.481c0.171,0,0.343-0.015,0.512-0.044l16.385-2.877C23.756,49.925,23.653,49.372,23.561,48.817z
			 M26.48,59.22c-0.214-0.537-0.419-1.075-0.61-1.618c-0.381,0.207-0.719,0.49-0.974,0.854L14.348,73.577
			c-0.455,0.653-0.633,1.448-0.498,2.241c0.138,0.79,0.571,1.479,1.205,1.927c0.505,0.362,1.098,0.557,1.714,0.557
			c0.176,0,0.348-0.014,0.514-0.048c0.786-0.14,1.467-0.571,1.919-1.228l9.291-13.319c-0.291-0.576-0.572-1.152-0.84-1.731
			C27.237,61.065,26.846,60.146,26.48,59.22z M63.721,7.669c-18.799,0-34.096,15.21-34.096,33.912c0,9.542,3.958,19.936,10.606,27.9
			c0.069,0.101,0.145,0.205,0.224,0.303c2.022,2.518,7.796,10.927,7.796,16.382c0,2.332,1.874,4.22,4.184,4.22h22.691
			c0.553,0,1.106-0.107,1.636-0.338c1.548-0.661,2.547-2.19,2.547-3.882c0-4.847,4.782-12.622,7.797-16.382
			c0.181-0.227,0.333-0.471,0.461-0.729c6.437-7.903,10.259-18.1,10.259-27.474C97.824,22.879,82.527,7.669,63.721,7.669z
			 M80.587,64.312c-0.243,0.283-0.44,0.601-0.594,0.933c-1.859,2.444-6.917,9.564-8.543,16.698H56.11
			c-1.722-7.548-7.281-15.075-8.838-17.073c-0.11-0.181-0.238-0.355-0.381-0.519c-5.488-6.429-8.896-15.152-8.896-22.771
			c0-14.048,11.544-25.474,25.726-25.474c14.192,0,25.733,11.426,25.733,25.474C89.454,49.186,86.057,57.896,80.587,64.312z
			 M73.163,97.417H54.289c-1.85,0-3.35,1.511-3.35,3.377v13.064c0,1.863,1.5,3.378,3.35,3.378h3.19l1.663,1.929
			c0.633,0.741,1.557,1.166,2.529,1.166h4.108c0.971,0,1.895-0.425,2.528-1.166l1.662-1.929h3.193c1.847,0,3.345-1.515,3.345-3.378
			v-13.064C76.508,98.928,75.01,97.417,73.163,97.417z"/>
	</g>
</g>
</svg>
